<?xml version="1.0" encoding="utf-8"?>
<!-- Generator: Adobe Illustrator 15.0.0, SVG Export Plug-In . SVG Version: 6.00 Build 0)  -->
<!DOCTYPE svg PUBLIC "-//W3C//DTD SVG 1.1//EN" "http://www.w3.org/Graphics/SVG/1.1/DTD/svg11.dtd">
<svg version="1.1" xmlns="http://www.w3.org/2000/svg" xmlns:xlink="http://www.w3.org/1999/xlink" x="0px" y="0px" width="15.86px"
	 height="14.819px" viewBox="-87.631 -5.265 15.86 14.819" enable-background="new -87.631 -5.265 15.86 14.819"
	 xml:space="preserve">
<g id="Layer_1">
	<title>Group</title>
	<desc>Created with Sketch.</desc>
</g>
<g id="Layer_2">
	<path fill-rule="evenodd" clip-rule="evenodd" d="M-73.405,1.913l-0.188,0.15l-0.979,5.773l-0.009,0.105
		c0,0.189-0.155,0.345-0.345,0.345h-9.549c-0.19,0-0.346-0.154-0.346-0.345l-0.987-5.879l-0.188-0.15
		c-0.231-0.187-0.364-0.456-0.364-0.741c0-0.527,0.43-0.956,0.958-0.956H-74c0.528,0,0.958,0.429,0.958,0.956
		C-73.042,1.457-73.174,1.727-73.405,1.913z M-73.886-1.046l-2.702-3.942c-0.198-0.289-0.594-0.363-0.883-0.165
		c-0.29,0.197-0.364,0.592-0.166,0.881l2.207,3.22h-8.543l2.208-3.22c0.198-0.289,0.124-0.684-0.166-0.881
		c-0.29-0.198-0.685-0.124-0.883,0.165l-2.702,3.942c-1.176,0.06-2.115,1.029-2.115,2.218c0,0.586,0.233,1.141,0.646,1.557
		l0.894,5.273c0.031,0.861,0.744,1.553,1.615,1.553h9.549c0.871,0,1.583-0.69,1.615-1.553l0.894-5.273
		c0.413-0.416,0.646-0.971,0.646-1.557C-71.771-0.016-72.71-0.987-73.886-1.046z M-82.775,1.871c-0.351,0-0.635,0.284-0.635,0.634
		v4.443c0,0.35,0.285,0.634,0.635,0.634c0.351,0,0.635-0.284,0.635-0.634V2.504C-82.14,2.155-82.424,1.871-82.775,1.871z
		 M-79.701,1.871c-0.351,0-0.636,0.284-0.636,0.634v4.443c0,0.35,0.285,0.634,0.636,0.634c0.351,0,0.635-0.284,0.635-0.634V2.504
		C-79.065,2.155-79.35,1.871-79.701,1.871z M-76.626,1.871c-0.351,0-0.635,0.284-0.635,0.634v4.443c0,0.35,0.284,0.634,0.635,0.634
		s0.635-0.284,0.635-0.634V2.504C-75.991,2.155-76.275,1.871-76.626,1.871z"/>
</g>
</svg>
