<?xml version="1.0" encoding="UTF-8" standalone="no"?>
<svg width="33px" height="33px" viewBox="0 0 33 33" version="1.1" xmlns="http://www.w3.org/2000/svg" xmlns:xlink="http://www.w3.org/1999/xlink">
    <!-- Generator: Sketch 39.1 (31720) - http://www.bohemiancoding.com/sketch -->
    <title>Combined Shape</title>
    <desc>Created with Sketch.</desc>
    <defs></defs>
    <g id="Page-1" stroke="none" stroke-width="1" fill="none" fill-rule="evenodd">
        <g id="Desktop-HD-Copy" transform="translate(-252.000000, -6523.000000)" fill="#000000">
            <g id="footer" transform="translate(245.000000, 6378.000000)">
                <g id="facebook-logo" transform="translate(7.000000, 145.000000)">
                    <path d="M0,16.5 C0,7.38730163 7.385298,0 16.5,0 C25.6126984,0 33,7.385298 33,16.5 C33,25.6126984 25.614702,33 16.5,33 C7.38730163,33 0,25.614702 0,16.5 Z M19.6610864,9.00353713 L17.5023957,9 C15.0771806,9 13.5099001,10.6421148 13.5099001,13.1837229 L13.5099001,15.1126994 L11.3394331,15.1126994 C11.151879,15.1126994 11,15.2679796 11,15.4595154 L11,18.2543824 C11,18.4459183 11.1520522,18.6010216 11.3394331,18.6010216 L13.5099001,18.6010216 L13.5099001,25.6533608 C13.5099001,25.8448966 13.6617791,26 13.8493333,26 L16.6811753,26 C16.8687294,26 17.0206084,25.8447198 17.0206084,25.6533608 L17.0206084,18.6010216 L19.5583906,18.6010216 C19.7459447,18.6010216 19.8978237,18.4459183 19.8978237,18.2543824 L19.8988628,15.4595154 C19.8988628,15.3675499 19.8630145,15.2794753 19.7994574,15.214392 C19.7359002,15.1493087 19.6493102,15.1126994 19.5592565,15.1126994 L17.0206084,15.1126994 L17.0206084,13.477482 C17.0206084,12.6915306 17.2040062,12.2925418 18.2065462,12.2925418 L19.6607401,12.2920113 C19.848121,12.2920113 20,12.1367311 20,11.9453721 L20,9.35017634 C20,9.15899421 19.8482942,9.00389085 19.6610864,9.00353713 Z" id="Combined-Shape"></path>
                </g>
            </g>
        </g>
    </g>
</svg>