<?xml version="1.0" encoding="UTF-8" standalone="no"?>
<svg width="46px" height="31px" viewBox="0 0 46 31" version="1.1" xmlns="http://www.w3.org/2000/svg" xmlns:xlink="http://www.w3.org/1999/xlink">
    <!-- Generator: Sketch 40 (33762) - http://www.bohemiancoding.com/sketch -->
    <title>Shape</title>
    <desc>Created with Sketch.</desc>
    <defs></defs>
    <g id="Page-1" stroke="none" stroke-width="1" fill="none" fill-rule="evenodd">
        <g id="Desktop-HD-Copy" transform="translate(-812.000000, -92.000000)" fill="#000000">
            <g id="header" transform="translate(0.000000, -1.000000)">
                <g id="truck" transform="translate(812.000000, 93.000000)">
                    <g id="Capa_1">
                        <path d="M43.4305439,7.14039634 C41.9004184,5.51478659 39.725523,4.62637195 37.3100418,4.62637195 L31.0066946,4.62637195 L31.0066946,1.14832317 C31.0066946,0.524542683 30.4870293,0.0141768293 29.8518828,0.0141768293 L1.15481172,0.0141768293 C0.519665272,0.0141768293 0,0.524542683 0,1.14832317 L0,26.0900915 C0,26.713872 0.519665272,27.2242378 1.15481172,27.2242378 L5.75481172,27.2242378 C6.13012552,29.3224085 7.9874477,30.9196646 10.2297071,30.9196646 C12.4719665,30.9196646 14.3292887,29.3224085 14.7046025,27.2242378 L29.8518828,27.2242378 L32.3828452,27.2242378 C32.758159,29.3224085 34.6154812,30.9196646 36.8577406,30.9196646 C39.1,30.9196646 40.9573222,29.3224085 41.332636,27.2242378 L44.7778243,27.2242378 C45.4129707,27.2242378 45.932636,26.713872 45.932636,26.0900915 L45.932636,14.3705793 C45.9230126,11.3745427 45.0665272,8.86996951 43.4305439,7.14039634 L43.4305439,7.14039634 Z M2.30962343,2.28246951 L28.6970711,2.28246951 L28.6970711,5.76051829 L28.6970711,24.9653963 L14.5025105,24.9653963 C13.8769874,23.2452744 12.192887,22.0071646 10.2297071,22.0071646 C8.2665272,22.0071646 6.58242678,23.2452744 5.95690377,24.9653963 L2.30962343,24.9653963 L2.30962343,2.28246951 L2.30962343,2.28246951 Z M10.2297071,28.651372 C8.99790795,28.651372 7.99707113,27.6684451 7.99707113,26.458689 C7.99707113,25.2489329 8.99790795,24.2660061 10.2297071,24.2660061 C11.4615063,24.2660061 12.4623431,25.2489329 12.4623431,26.458689 C12.4623431,27.6684451 11.4615063,28.651372 10.2297071,28.651372 L10.2297071,28.651372 Z M36.8577406,28.651372 C35.6259414,28.651372 34.6251046,27.6684451 34.6251046,26.458689 C34.6251046,25.2489329 35.6259414,24.2660061 36.8577406,24.2660061 C38.0895397,24.2660061 39.0903766,25.2489329 39.0903766,26.458689 C39.0903766,27.6684451 38.0895397,28.651372 36.8577406,28.651372 L36.8577406,28.651372 Z M43.6133891,24.9559451 L41.1305439,24.9559451 C40.5050209,23.2358232 38.8209205,21.9977134 36.8577406,21.9977134 C34.8945607,21.9977134 33.2104603,23.2358232 32.5849372,24.9559451 L31.016318,24.9559451 L31.016318,6.89466463 L37.3196653,6.89466463 C41.2075314,6.89466463 43.6230126,9.75838415 43.6230126,14.3705793 L43.6230126,24.9559451 L43.6133891,24.9559451 L43.6133891,24.9559451 Z" id="Shape"></path>
                    </g>
                </g>
            </g>
        </g>
    </g>
</svg>