<?xml version="1.0" encoding="UTF-8" standalone="no"?>
<svg width="33px" height="33px" viewBox="0 0 33 33" version="1.1" xmlns="http://www.w3.org/2000/svg" xmlns:xlink="http://www.w3.org/1999/xlink">
    <!-- Generator: Sketch 39.1 (31720) - http://www.bohemiancoding.com/sketch -->
    <title>instagram</title>
    <desc>Created with Sketch.</desc>
    <defs></defs>
    <g id="Page-1" stroke="none" stroke-width="1" fill="none" fill-rule="evenodd">
        <g id="Desktop-HD-Copy" transform="translate(-396.000000, -6523.000000)">
            <g id="footer" transform="translate(245.000000, 6378.000000)">
                <g id="instagram" transform="translate(151.000000, 145.000000)">
                    <rect id="Rectangle-150-Copy-3" fill="#000000" x="0" y="0" width="33" height="33" rx="16.5"></rect>
                    <path d="M21.320915,8.35797252 C26.2927602,8.98446901 24.8335479,16.0367921 24.6952456,19.4551293 C24.6183861,21.3347281 24.2754232,22.7882787 22.2938349,23.4398176 C19.6875401,24.2969444 15.8472491,24.011199 13.1897892,23.6303145 C11.4129732,23.3796722 10.0202309,22.8583755 9.52868795,21.0540131 C8.75037438,18.2020269 8.97056328,14.3425505 9.30849906,11.4354493 C9.31877677,11.3803342 9.33408163,11.3402008 9.35966421,11.3050978 C9.4056905,6.954616 18.7350639,8.03220309 21.320915,8.35797252 Z M21.1160309,13.3401998 C19.3649092,10.7438864 15.4118985,10.4882137 13.2869806,12.7888304 C11.8379344,14.3576415 11.7354924,16.969046 12.8261591,18.8236024 C12.887602,18.8436145 12.943906,18.8787175 12.9951829,18.9388629 C14.7668601,20.8735768 17.8185598,21.5753098 20.010171,19.8210321 C21.9660651,18.252221 22.5394946,15.4503196 21.1160309,13.3401998 Z M23.3843899,11.0095104 C23.3946676,9.81152312 21.8687619,9.43063862 21.0494492,10.1674746 C20.8292603,10.3679229 20.7268183,10.6736803 20.7115134,11.00448 C20.7934,11.4305283 21.0545881,11.8515462 21.3925238,12.0921278 C22.186254,12.6384669 23.3741122,11.9116916 23.3843899,11.0095104 Z M14.1370148,16.8989492 C14.7565823,18.6031422 16.9583596,19.956414 18.7146202,18.9038692 C22.2630017,16.7786584 18.0950527,11.0045894 15.1712658,13.5657998 C14.1370148,14.1622236 13.7324973,15.7811194 14.1370148,16.8989492 Z" id="Combined-Shape" fill="#FFFFFF"></path>
                </g>
            </g>
        </g>
    </g>
</svg>