<?xml version="1.0" encoding="UTF-8" standalone="no"?>
<svg width="30px" height="31px" viewBox="0 0 30 31" version="1.1" xmlns="http://www.w3.org/2000/svg" xmlns:xlink="http://www.w3.org/1999/xlink">
    <!-- Generator: Sketch 39.1 (31720) - http://www.bohemiancoding.com/sketch -->
    <title>package</title>
    <desc>Created with Sketch.</desc>
    <defs></defs>
    <g id="Page-1" stroke="none" stroke-width="1" fill="none" fill-rule="evenodd">
        <g id="Desktop-HD-Copy" transform="translate(-819.000000, -92.000000)" fill="#000000">
            <g id="package" transform="translate(819.000000, 92.000000)">
                <path d="M29.8095768,8.00833333 L23.6826281,0.304700855 C23.5289532,0.112606838 23.3017817,0 23.0545657,0 L6.96547884,0 C6.71826281,0 6.49109131,0.112606838 6.33741648,0.304700855 L0.210467706,8.00833333 C0.0968819599,8.1474359 0.0367483296,8.31965812 0.0367483296,8.49850427 L0.0367483296,30.1521368 C0.0367483296,30.5893162 0.397550111,30.9470085 0.838530067,30.9470085 L29.174833,30.9470085 C29.6158129,30.9470085 29.9766147,30.5893162 29.9766147,30.1521368 L29.9766147,8.49850427 C29.9766147,8.31965812 29.9164811,8.1474359 29.8095768,8.00833333 L29.8095768,8.00833333 Z M27.6314031,7.83611111 L15.811804,7.83611111 L15.811804,1.58974359 L22.6670379,1.58974359 L27.6314031,7.83611111 L27.6314031,7.83611111 Z M7.35300668,1.58974359 L14.2082405,1.58974359 L14.2082405,7.83611111 L2.38864143,7.83611111 L7.35300668,1.58974359 L7.35300668,1.58974359 Z M1.6403118,29.357265 L1.6403118,9.4258547 L28.3730512,9.4258547 L28.3730512,29.357265 L1.6403118,29.357265 L1.6403118,29.357265 Z" id="Shape"></path>
                <path d="M23.6024499,15.0495726 L7.20601336,15.0495726 C6.76503341,15.0495726 6.40423163,15.407265 6.40423163,15.8444444 C6.40423163,16.2816239 6.76503341,16.6393162 7.20601336,16.6393162 L23.6024499,16.6393162 C24.0434298,16.6393162 24.4042316,16.2816239 24.4042316,15.8444444 C24.4042316,15.407265 24.0434298,15.0495726 23.6024499,15.0495726 L23.6024499,15.0495726 Z" id="Shape"></path>
                <path d="M20.4888641,18.7788462 L10.3195991,18.7788462 C9.87861915,18.7788462 9.51781737,19.1365385 9.51781737,19.5737179 C9.51781737,20.0108974 9.87861915,20.3685897 10.3195991,20.3685897 L20.4821826,20.3685897 C20.9231626,20.3685897 21.2839644,20.0108974 21.2839644,19.5737179 C21.2839644,19.1365385 20.9298441,18.7788462 20.4888641,18.7788462 L20.4888641,18.7788462 Z" id="Shape"></path>
                <path d="M20.4888641,22.5014957 L10.3195991,22.5014957 C9.87861915,22.5014957 9.51781737,22.859188 9.51781737,23.2963675 C9.51781737,23.733547 9.87861915,24.0912393 10.3195991,24.0912393 L20.4821826,24.0912393 C20.9231626,24.0912393 21.2839644,23.733547 21.2839644,23.2963675 C21.2839644,22.859188 20.9298441,22.5014957 20.4888641,22.5014957 L20.4888641,22.5014957 Z" id="Shape"></path>
            </g>
        </g>
    </g>
</svg>