<?xml version="1.0" encoding="utf-8"?>
<!-- Generator: Adobe Illustrator 15.0.0, SVG Export Plug-In . SVG Version: 6.00 Build 0)  -->
<!DOCTYPE svg PUBLIC "-//W3C//DTD SVG 1.1//EN" "http://www.w3.org/Graphics/SVG/1.1/DTD/svg11.dtd">
<svg version="1.1" id="Layer_1" xmlns="http://www.w3.org/2000/svg" xmlns:xlink="http://www.w3.org/1999/xlink" x="0px" y="0px"
	 width="31.634px" height="31.63px" viewBox="0.366 0.05 31.634 31.63" enable-background="new 0.366 0.05 31.634 31.63"
	 xml:space="preserve">
<path d="M26.291,13.154c-0.15,0.37-0.505,0.608-0.903,0.608c-0.125,0-0.248-0.024-0.365-0.072c-0.244-0.099-0.434-0.286-0.535-0.527
	c-0.1-0.24-0.102-0.505-0.002-0.745c0.562-1.387,0.24-2.972-0.82-4.035c-1.061-1.06-2.795-1.379-4.172-0.76
	c-0.477,0.215-1.078-0.014-1.291-0.489c-0.105-0.235-0.115-0.5-0.022-0.744s0.273-0.437,0.511-0.543
	c2.094-0.947,4.73-0.464,6.354,1.159C26.66,8.623,27.149,11.036,26.291,13.154z M28.45,3.597c-1.948-1.948-4.662-3.065-7.445-3.065
	c-1.498,0-2.944,0.311-4.301,0.923c-0.487,0.221-0.706,0.799-0.486,1.292c0.214,0.47,0.791,0.707,1.291,0.486
	c1.102-0.498,2.279-0.751,3.5-0.751c2.268,0,4.477,0.909,6.062,2.495c2.434,2.433,3.17,6.066,1.878,9.255
	c-0.099,0.241-0.098,0.505,0.003,0.745c0.102,0.241,0.29,0.427,0.535,0.527c0.117,0.046,0.24,0.07,0.364,0.07
	c0.399,0,0.755-0.239,0.903-0.608C32.345,11.049,31.44,6.587,28.45,3.597z M28.708,30.48c0.133-0.134,0.275-0.27,0.422-0.408
	l0.119-0.113c1.262-1.198,2.834-2.689,2.748-4.806c-0.061-1.45-0.896-2.802-2.553-4.134c-1.894-1.522-3.421-2.231-4.806-2.231
	c-1.766,0-2.87,1.121-3.938,2.203l-0.216,0.219c-0.208-0.027-0.684-0.19-1.422-0.668c-1.074-0.7-2.441-1.876-4.062-3.496
	c-3.772-3.771-4.129-5.176-4.156-5.489l0.207-0.204c2.216-2.184,3.622-4.215-0.022-8.748C9.695,0.948,8.343,0.113,6.897,0.054
	L6.726,0.05c-2.019,0-3.529,1.587-4.631,2.745c-0.18,0.189-0.355,0.374-0.529,0.546c-1.524,1.524-1.599,4.513-0.207,8.2
	c1.405,3.727,4.166,7.767,7.774,11.374c3.607,3.607,7.646,6.368,11.371,7.773c1.72,0.648,3.348,0.991,4.708,0.991
	C26.712,31.681,27.921,31.267,28.708,30.48z M6.816,1.952C7.685,1.988,8.58,2.591,9.55,3.796c2.856,3.554,1.902,4.495,0.166,6.206
	l-0.318,0.314c-0.331,0.331-0.78,1.112-0.082,2.631c0.622,1.353,2.083,3.184,4.343,5.443c1.714,1.713,3.185,2.973,4.371,3.745
	c1.003,0.65,1.849,0.979,2.515,0.979c0.6,0,0.978-0.253,1.191-0.467l0.317-0.32c1.001-1.017,1.662-1.64,2.586-1.64
	c0.903,0,2.12,0.61,3.616,1.812c1.204,0.969,1.807,1.862,1.844,2.731c0.051,1.253-1.072,2.318-2.16,3.351l-0.119,0.113
	c-0.158,0.151-0.313,0.299-0.457,0.443c-0.904,0.902-3.37,0.835-6.188-0.227c-3.479-1.312-7.278-3.919-10.698-7.34
	c-3.421-3.421-6.028-7.221-7.34-10.701C2.068,8.043,1.979,5.615,2.908,4.687c0.184-0.184,0.371-0.379,0.562-0.581
	C4.432,3.096,5.52,1.952,6.813,1.952C6.814,1.952,6.815,1.952,6.816,1.952z"/>
</svg>
