<?xml version="1.0" encoding="UTF-8" standalone="no"?>
<svg width="33px" height="33px" viewBox="0 0 33 33" version="1.1" xmlns="http://www.w3.org/2000/svg" xmlns:xlink="http://www.w3.org/1999/xlink">
    <!-- Generator: Sketch 39.1 (31720) - http://www.bohemiancoding.com/sketch -->
    <title>Combined Shape</title>
    <desc>Created with Sketch.</desc>
    <defs></defs>
    <g id="Page-1" stroke="none" stroke-width="1" fill="none" fill-rule="evenodd">
        <g id="Desktop-HD-Copy" transform="translate(-348.000000, -6523.000000)" fill="#000000">
            <g id="footer" transform="translate(245.000000, 6378.000000)">
                <g id="pinterest" transform="translate(103.000000, 145.000000)">
                    <path d="M0,16.5 C0,7.38730163 7.385298,0 16.5,0 C25.6126984,0 33,7.385298 33,16.5 C33,25.6126984 25.614702,33 16.5,33 C7.38730163,33 0,25.614702 0,16.5 Z M22.1843341,8.84453481 C20.9582253,7.65509665 19.2614244,7 17.4065198,7 C14.5730606,7 12.8303568,8.17370516 11.8673714,9.15826596 C10.6805587,10.3716229 10,11.9827171 10,13.5785428 C10,15.5822074 10.8293556,17.1200938 12.2182217,17.6922293 C12.3114638,17.7308361 12.4052805,17.7502847 12.4972588,17.7502847 C12.7902564,17.7502847 13.0224139,17.5565539 13.1028446,17.2457836 C13.1497242,17.0674956 13.2583632,16.6276682 13.3055875,16.4367242 C13.4067004,16.0596546 13.3250057,15.8782897 13.1045107,15.6157053 C12.7028167,15.1354133 12.5157579,14.5674578 12.5157579,13.828297 C12.5157579,11.6327595 14.1335642,9.29934048 17.1320213,9.29934048 C19.5111618,9.29934048 20.9890762,10.6657894 20.9890762,12.8653908 C20.9890762,14.2534363 20.6932061,15.5388981 20.155814,16.4851423 C19.7823857,17.1426192 19.1257263,17.9263666 18.1176422,17.9263666 C17.6817078,17.9263666 17.2901251,17.745408 17.0430304,17.4299352 C16.809609,17.1317048 16.7326828,16.7464495 16.8265569,16.3449386 C16.9326106,15.8912941 17.0772135,15.4180849 17.2171629,14.9606086 C17.4724155,14.1250759 17.7137077,13.3359295 17.7137077,12.7063191 C17.7137077,11.6293922 17.0585421,10.9057903 16.0835495,10.9057903 C14.8444568,10.9057903 13.8737156,12.1775509 13.8737156,13.801069 C13.8737156,14.5972982 14.0831227,15.1928301 14.177916,15.4215101 C14.021823,16.0898434 13.0941121,20.0632101 12.9181412,20.8124725 C12.8163964,21.2498616 12.2034569,24.7044456 13.2179754,24.9799183 C14.357851,25.2894114 15.3767358,21.9248712 15.480434,21.5446667 C15.5644841,21.2354639 15.8585733,20.066287 16.0387955,19.3475617 C16.5890565,19.8831804 17.4750583,20.2452717 18.3371606,20.2452717 C19.9623781,20.2452717 21.4239766,19.506227 22.4527429,18.1643935 C23.4504859,16.8629085 24,15.0489108 24,13.0567993 C24,11.4994063 23.3381701,9.96407432 22.1843341,8.84453481 Z" id="Combined-Shape"></path>
                </g>
            </g>
        </g>
    </g>
</svg>