<?xml version="1.0" encoding="UTF-8" standalone="no"?>
<svg width="23px" height="24px" viewBox="0 0 23 24" version="1.1" xmlns="http://www.w3.org/2000/svg" xmlns:xlink="http://www.w3.org/1999/xlink">
    <!-- Generator: Sketch 39.1 (31720) - http://www.bohemiancoding.com/sketch -->
    <title>Shape</title>
    <desc>Created with Sketch.</desc>
    <defs></defs>
    <g id="Page-1" stroke="none" stroke-width="1" fill="none" fill-rule="evenodd">
        <g id="Desktop-HD-Copy" transform="translate(-733.000000, -93.000000)" fill="#000000">
            <path d="M748.97523,108.628094 C750.490705,106.987486 751.436166,104.790702 751.436166,102.371477 C751.436166,97.2966485 747.306798,93.1533938 742.218083,93.1533938 C737.129367,93.1533938 733,97.2966485 733,102.371477 C733,107.446305 737.129367,111.58956 742.218083,111.58956 C744.289735,111.58956 746.194494,110.9083 747.737793,109.754285 L754.592249,116.608741 C754.759092,116.775584 754.967646,116.859005 755.1762,116.859005 C755.384754,116.859005 755.607195,116.775584 755.760151,116.608741 C756.07995,116.288942 756.07995,115.760638 755.760151,115.426951 L748.97523,108.628094 L748.97523,108.628094 Z M734.668431,102.371477 C734.668431,98.2142857 738.047005,94.8218251 742.218083,94.8218251 C746.375274,94.8218251 749.767734,98.2003984 749.767734,102.371477 C749.767734,106.542555 746.389161,109.921128 742.218083,109.921128 C738.047005,109.921128 734.668431,106.528668 734.668431,102.371477 L734.668431,102.371477 Z" id="Shape"></path>
        </g>
    </g>
</svg>