<?xml version="1.0" encoding="UTF-8" standalone="no"?>
<svg width="33px" height="33px" viewBox="0 0 33 33" version="1.1" xmlns="http://www.w3.org/2000/svg" xmlns:xlink="http://www.w3.org/1999/xlink">
    <!-- Generator: Sketch 39.1 (31720) - http://www.bohemiancoding.com/sketch -->
    <title>Combined Shape</title>
    <desc>Created with Sketch.</desc>
    <defs></defs>
    <g id="Page-1" stroke="none" stroke-width="1" fill="none" fill-rule="evenodd">
        <g id="Desktop-HD-Copy" transform="translate(-300.000000, -6523.000000)" fill="#000000">
            <g id="footer" transform="translate(245.000000, 6378.000000)">
                <g id="twitter-logo-silhouette" transform="translate(55.000000, 145.000000)">
                    <path d="M0,16.5 C0,7.38730163 7.385298,0 16.5,0 C25.6126984,0 33,7.385298 33,16.5 C33,25.6126984 25.614702,33 16.5,33 C7.38730163,33 0,25.614702 0,16.5 Z M26,11.6564203 C25.3743045,11.9375079 24.7029423,12.1281383 23.9975523,12.2132447 C24.7178035,11.7759691 25.2691377,11.0823887 25.5304437,10.2584733 C24.8548315,10.6634186 24.1090802,10.9574609 23.3144678,11.1168593 C22.6781612,10.4286579 21.7730764,10 20.7691859,10 C18.8432383,10 17.2816524,11.5831984 17.2816524,13.5347311 C17.2816524,13.8115099 17.312458,14.0818396 17.3719581,14.340341 C14.4740089,14.1927707 11.9043103,12.785136 10.1844464,10.6461833 C9.883807,11.1674669 9.71277894,11.7748708 9.71277894,12.4232508 C9.71277894,13.6499711 10.3289188,14.7323599 11.2637537,15.3656167 C10.692225,15.346241 10.1546963,15.1868426 9.68411223,14.9218919 L9.68411223,14.9660504 C9.68411223,16.6784854 10.886642,18.1076644 12.4811446,18.4329386 C12.1890052,18.5126378 11.8809492,18.5567963 11.5622542,18.5567963 C11.3370594,18.5567963 11.1192812,18.534182 10.9057531,18.4910937 C11.3497816,19.8965881 12.6373115,20.9186533 14.1627862,20.9466747 C12.969812,21.8944478 11.4655874,22.4577214 9.83177914,22.4577214 C9.55027868,22.4577214 9.27300045,22.4404861 9,22.4092541 C10.5435303,23.4141121 12.3760055,24 14.3455087,24 C20.7607414,24 24.2674138,18.612811 24.2674138,13.9407747 L24.2557194,13.4830534 C24.9408872,12.9875945 25.5336381,12.3650957 26,11.6564203 Z" id="Combined-Shape"></path>
                </g>
            </g>
        </g>
    </g>
</svg>