<?xml version="1.0" encoding="UTF-8" standalone="no"?>
<svg width="23px" height="24px" viewBox="0 0 23 24" version="1.1" xmlns="http://www.w3.org/2000/svg" xmlns:xlink="http://www.w3.org/1999/xlink">
    <!-- Generator: Sketch 39.1 (31720) - http://www.bohemiancoding.com/sketch -->
    <title>Shape</title>
    <desc>Created with Sketch.</desc>
    <defs></defs>
    <g id="Page-1" stroke="none" stroke-width="1" fill="none" fill-rule="evenodd">
        <g id="Mobile-Portrait" transform="translate(-159.000000, -62.000000)" fill="#000000">
            <path d="M174.97523,77.4747002 C176.490705,75.8340924 177.436166,73.6373082 177.436166,71.2180829 C177.436166,66.1432547 173.306798,62 168.218083,62 C163.129367,62 159,66.1432547 159,71.2180829 C159,76.292911 163.129367,80.4361657 168.218083,80.4361657 C170.289735,80.4361657 172.194494,79.754906 173.737793,78.6008913 L180.592249,85.4553468 C180.759092,85.6221899 180.967646,85.7056115 181.1762,85.7056115 C181.384754,85.7056115 181.607195,85.6221899 181.760151,85.4553468 C182.07995,85.1355478 182.07995,84.6072439 181.760151,84.2735577 L174.97523,77.4747002 L174.97523,77.4747002 Z M160.668431,71.2180829 C160.668431,67.0608919 164.047005,63.6684313 168.218083,63.6684313 C172.375274,63.6684313 175.767734,67.0470046 175.767734,71.2180829 C175.767734,75.3891611 172.389161,78.7677344 168.218083,78.7677344 C164.047005,78.7677344 160.668431,75.3752738 160.668431,71.2180829 L160.668431,71.2180829 Z" id="Shape"></path>
        </g>
    </g>
</svg>