<?xml version="1.0" encoding="UTF-8" standalone="no"?>
<svg width="29px" height="26px" viewBox="0 0 29 26" version="1.1" xmlns="http://www.w3.org/2000/svg" xmlns:xlink="http://www.w3.org/1999/xlink">
    <!-- Generator: Sketch 39.1 (31720) - http://www.bohemiancoding.com/sketch -->
    <title>shopping-basket</title>
    <desc>Created with Sketch.</desc>
    <defs></defs>
    <g id="Page-1" stroke="none" stroke-width="1" fill="none" fill-rule="evenodd">
        <g id="Mobile-Portrait" transform="translate(-206.000000, -60.000000)" fill="#000000">
            <g id="shopping-basket" transform="translate(206.000000, 60.000000)">
                <path d="M25.0973733,7.31115094 L20.16428,0.478643899 C19.8027467,-0.0219476504 19.08084,-0.150482862 18.55188,0.191911505 C18.02292,0.534672068 17.8875867,1.21799601 18.24912,1.71895376 L22.2797333,7.30089742 L6.68005333,7.30089742 L10.71028,1.71895376 C11.0718133,1.21799601 10.9360933,0.534672068 10.40752,0.191911505 C9.87778667,-0.150849059 9.15626667,-0.0219476504 8.79512,0.478643899 L3.86241333,7.31115094 C1.71486667,7.41441855 0,9.09672841 0,11.1562214 C0,12.1716862 0.424946667,13.1329538 1.18010667,13.8536298 L2.81261333,22.9950101 C2.87022667,24.4883622 4.17097333,25.6865594 5.76133333,25.6865594 L23.19768,25.6865594 C24.78804,25.6865594 26.0891733,24.4887284 26.1467867,22.9950101 L27.7792933,13.8536298 C28.5340667,13.1329538 28.9594,12.1716862 28.9594,11.1562214 C28.9590133,9.0970946 27.2445333,7.41478474 25.0973733,7.31115094 L25.0973733,7.31115094 Z M25.97472,12.4401087 L25.63136,12.7015735 L23.8445733,22.7082777 L23.8283333,22.8913763 C23.8283333,23.2205876 23.5452933,23.4890101 23.1972933,23.4890101 L5.76133333,23.4890101 C5.41333333,23.4890101 5.13029333,23.2209538 5.13029333,22.8913763 L3.32688,12.7015735 L2.98390667,12.4401087 C2.56166667,12.1182214 2.31961333,11.6502214 2.31961333,11.1558552 C2.31961333,10.2414608 3.10454667,9.49808052 4.06928,9.49808052 L24.88896,9.49808052 C25.8536933,9.49808052 26.6386267,10.241827 26.6386267,11.1558552 C26.6390133,11.6505876 26.39696,12.1185876 25.97472,12.4401087 L25.97472,12.4401087 Z" id="Shape"></path>
                <path d="M20.16,12 C19.5192933,12 19,12.4918028 19,13.0985915 L19,20.7993521 C19,21.4061408 19.5192933,21.8979437 20.16,21.8979437 C20.8007067,21.8979437 21.32,21.4061408 21.32,20.7993521 L21.32,13.0985915 C21.32,12.4918028 20.8007067,12 20.16,12 L20.16,12 Z" id="Shape"></path>
                <path d="M14.16,12 C13.5192933,12 13,12.4918028 13,13.0985915 L13,20.7993521 C13,21.4061408 13.5192933,21.8979437 14.16,21.8979437 C14.8007067,21.8979437 15.32,21.4061408 15.32,20.7993521 L15.32,13.0985915 C15.32,12.4918028 14.8007067,12 14.16,12 L14.16,12 Z" id="Shape"></path>
                <path d="M9.16,12 C8.51929333,12 8,12.4918028 8,13.0985915 L8,20.7993521 C8,21.4061408 8.51929333,21.8979437 9.16,21.8979437 C9.80070667,21.8979437 10.32,21.4061408 10.32,20.7993521 L10.32,13.0985915 C10.32,12.4918028 9.80070667,12 9.16,12 L9.16,12 Z" id="Shape"></path>
            </g>
        </g>
    </g>
</svg>